<?xml version="1.0" encoding="UTF-8" standalone="no"?>
<!-- Created with Inkscape (http://www.inkscape.org/) -->

<svg
   xmlns:dc="http://purl.org/dc/elements/1.1/"
   xmlns:cc="http://creativecommons.org/ns#"
   xmlns:rdf="http://www.w3.org/1999/02/22-rdf-syntax-ns#"
   xmlns:svg="http://www.w3.org/2000/svg"
   xmlns="http://www.w3.org/2000/svg"
   xmlns:sodipodi="http://sodipodi.sourceforge.net/DTD/sodipodi-0.dtd"
   xmlns:inkscape="http://www.inkscape.org/namespaces/inkscape"
   version="1.1"
   width="197.16013"
   height="198.55751"
   id="svg2"
   xml:space="preserve"
   inkscape:version="0.48.4 r9939"
   sodipodi:docname="Oraclize_RGB.svg"><sodipodi:namedview
     pagecolor="#ffffff"
     bordercolor="#666666"
     borderopacity="1"
     objecttolerance="10"
     gridtolerance="10"
     guidetolerance="10"
     inkscape:pageopacity="0"
     inkscape:pageshadow="2"
     inkscape:window-width="798"
     inkscape:window-height="879"
     id="namedview26"
     showgrid="false"
     inkscape:snap-object-midpoints="true"
     inkscape:snap-nodes="false"
     inkscape:zoom="0.76536402"
     inkscape:cx="68.145752"
     inkscape:cy="99.278751"
     inkscape:window-x="0"
     inkscape:window-y="19"
     inkscape:window-maximized="0"
     inkscape:current-layer="g12"
     fit-margin-top="0"
     fit-margin-left="0"
     fit-margin-right="0"
     fit-margin-bottom="0" /><metadata
     id="metadata8"><rdf:RDF><cc:Work
         rdf:about=""><dc:format>image/svg+xml</dc:format><dc:type
           rdf:resource="http://purl.org/dc/dcmitype/StillImage" /><dc:title></dc:title></cc:Work></rdf:RDF></metadata><defs
     id="defs6" /><g
     transform="matrix(1.25,0,0,-1.25,-91.726181,253.45375)"
     id="g10"><g
       transform="scale(0.1,0.1)"
       id="g12"><path
         d="m 1509.3705,476.48997 c -427.65,0 -775.56105,347.92 -775.56105,775.57003 0,151.84 43.882,298.9 126.898,425.29 11.734,17.86 35.723,22.84 53.594,11.1 17.863,-11.74 22.844,-35.73 11.097,-53.59 -74.699,-113.73 -114.187,-246.1 -114.187,-382.8 0,-384.97003 313.18905,-698.16003 698.15905,-698.16003 21.37,0 38.71,-17.32 38.71,-38.699 0,-21.391 -17.34,-38.711 -38.71,-38.711"
         id="path30"
         style="fill:#29b8fe;fill-opacity:1;fill-rule:nonzero;stroke:none"
         inkscape:connector-curvature="0" /><path
         d="m 1770.3805,524.02897 c -15.62,0 -30.34,9.551 -36.2,25.02 -7.58,19.991 2.48,42.321 22.48,49.891 269.67,102.17 450.87,364.63 450.87,653.12003 0,31.13 -2.07,62.45 -6.13,93.08 -2.84,21.18 12.05,40.65 33.23,43.47 21.19,2.83 40.66,-12.07 43.49,-33.26 4.53,-34.01 6.82,-68.75 6.82,-103.29 0,-160.56 -48.65,-314.64003 -140.67,-445.55003 -89.95,-127.95 -214.49,-224.76 -360.19,-279.942 -4.52,-1.707 -9.15,-2.539 -13.7,-2.539"
         id="path32"
         style="fill:#29b8fe;fill-opacity:1;fill-rule:nonzero;stroke:none"
         inkscape:connector-curvature="0" /><path
         d="m 2180.1005,1518.96 c -14.69,0 -28.74,8.41 -35.24,22.64 -113.29,248.23 -362.73,408.63 -635.49,408.63 -160.49,0 -311.37,-52.94 -436.31,-153.11 -16.68,-13.36 -41.04,-10.66 -54.41,6 -13.36,16.68 -10.68,41.03 6,54.4 136.83,109.7 308.97,170.11 484.72,170.11 302.98,0 580.07,-178.16 705.91,-453.9 8.88,-19.44 0.32,-42.4 -19.14,-51.27 -5.2,-2.38 -10.66,-3.5 -16.04,-3.5"
         id="path34"
         style="fill:#29b8fe;fill-opacity:1;fill-rule:nonzero;stroke:none"
         inkscape:connector-curvature="0" /><path
         d="m 1509.3705,678.26997 c -96.66,0 -192.23,24.5 -276.4,70.84 -18.73,10.33 -25.56,33.86 -15.24,52.58 10.31,18.73 33.86,25.55 52.56,15.24 72.78,-40.07 155.44,-61.25 239.08,-61.24 273.7,0 496.37,222.67 496.37,496.37003 0,182.55 -99.84,349.97 -260.57,436.91 -18.8,10.17 -25.79,33.66 -15.63,52.46 10.17,18.8 33.65,25.79 52.45,15.62 185.76,-100.49 301.17,-293.98 301.17,-504.99 0,-316.38003 -257.41,-573.79003 -573.79,-573.79003"
         id="path36"
         style="fill:#29b8fe;fill-opacity:1;fill-rule:nonzero;stroke:none"
         inkscape:connector-curvature="0" /><path
         d="m 1086.8805,884.99997 c -11.53,0 -22.94,5.14 -30.57,14.94 C 977.34045,1001.42 935.59045,1123.18 935.59045,1252.06 c 0,316.39 257.40005,573.78 573.78005,573.78 21.37,0 38.71,-17.32 38.71,-38.7 0,-21.38 -17.34,-38.7 -38.71,-38.7 -273.71,0 -496.37,-222.68 -496.37,-496.38 0,-111.5 36.09,-216.82 104.39,-304.59003 13.13,-16.86 10.11,-41.18 -6.77,-54.3 -7.07,-5.5 -15.43,-8.17 -23.74,-8.17"
         id="path38"
         style="fill:#29b8fe;fill-opacity:1;fill-rule:nonzero;stroke:none"
         inkscape:connector-curvature="0" /><path
         d="m 1509.3705,1537.35 c -157.3,0 -285.29,-127.98 -285.29,-285.29 0,-157.31 127.99,-285.29003 285.29,-285.29003 157.31,0 285.29,127.98003 285.29,285.29003 0,157.31 -127.98,285.29 -285.29,285.29 z m 0,-656.68003 c -204.79,0 -371.4,166.61003 -371.4,371.39003 0,204.79 166.61,371.39 371.4,371.39 204.79,0 371.38,-166.6 371.38,-371.39 0,-204.78 -166.59,-371.39003 -371.38,-371.39003"
         id="path40"
         style="fill:#f2f2f2;fill-opacity:1;fill-rule:nonzero;stroke:none"
         inkscape:connector-curvature="0" /><path
         d="m 1108.3805,1809.24 c 0,-41.99 -34.04,-76.02 -76.02,-76.02 -41.98505,0 -76.02005,34.03 -76.02005,76.02 0,41.98 34.035,76.02 76.02005,76.02 41.98,0 76.02,-34.04 76.02,-76.02"
         id="path42"
         style="fill:#29b8fe;fill-opacity:1;fill-rule:nonzero;stroke:none"
         inkscape:connector-curvature="0" /><path
         d="m 1614.4605,515.20097 c 0,-42 -34.04,-76.031 -76.02,-76.031 -41.98,0 -76.03,34.031 -76.03,76.031 0,41.981 34.05,76.009 76.03,76.009 41.98,0 76.02,-34.028 76.02,-76.009"
         id="path44"
         style="fill:#29b8fe;fill-opacity:1;fill-rule:nonzero;stroke:none"
         inkscape:connector-curvature="0" /><path
         d="m 2311.0905,1355.42 c 0,-41.98 -34.04,-76.02 -76.01,-76.02 -41.98,0 -76.03,34.04 -76.03,76.02 0,42 34.05,76.03 76.03,76.03 41.97,0 76.01,-34.03 76.01,-76.03"
         id="path46"
         style="fill:#29b8fe;fill-opacity:1;fill-rule:nonzero;stroke:none"
         inkscape:connector-curvature="0" /><path
         d="m 1821.7905,1733.22 c 0,-41.99 -34.04,-76.03 -76.02,-76.03 -41.98,0 -76.02,34.04 -76.02,76.03 0,41.99 34.04,76.02 76.02,76.02 41.98,0 76.02,-34.03 76.02,-76.02"
         id="path48"
         style="fill:#29b8fe;fill-opacity:1;fill-rule:nonzero;stroke:none"
         inkscape:connector-curvature="0" /><path
         d="m 1159.5305,923.69997 c 0,-41.98 -34.04,-76.02 -76.02,-76.02 -42,0 -76.03,34.04 -76.03,76.02 0,42 34.03,76.03 76.03,76.03 41.98,0 76.02,-34.03 76.02,-76.03"
         id="path50"
         style="fill:#29b8fe;fill-opacity:1;fill-rule:nonzero;stroke:none"
         inkscape:connector-curvature="0" /></g></g></svg>
